<svg width="106" height="21" viewBox="0 0 106 21" fill="none" xmlns="http://www.w3.org/2000/svg">
<g clip-path="url(#clip0_83_49)">
<g clip-path="url(#clip1_83_49)">
<path d="M9.99982 0.5L12.2449 7.40983H19.5104L13.6325 11.6803L15.8777 18.5902L9.99982 14.3197L4.12197 18.5902L6.36711 11.6803L0.489258 7.40983H7.75468L9.99982 0.5Z" fill="#FED300"/>
<path d="M31.4998 0.5L33.8572 7.40983H41.4859L35.3141 11.6803L37.6715 18.5902L31.4998 14.3197L25.3281 18.5902L27.6855 11.6803L21.5137 7.40983H29.1424L31.4998 0.5Z" fill="#FED300"/>
<path d="M52.4998 0.5L54.8572 7.40983H62.4859L56.3141 11.6803L58.6715 18.5902L52.4998 14.3197L46.3281 18.5902L48.6855 11.6803L42.5137 7.40983H50.1424L52.4998 0.5Z" fill="#FED300"/>
<path d="M74.4998 0.5L76.8572 7.40983H84.4859L78.3141 11.6803L80.6715 18.5902L74.4998 14.3197L68.3281 18.5902L70.6855 11.6803L64.5137 7.40983H72.1424L74.4998 0.5Z" fill="#FED300"/>
<path d="M95.9999 0.5L98.245 7.40983H105.511L99.6326 11.6803L101.878 18.5902L95.9999 14.3197L90.122 18.5902L92.3672 11.6803L86.4893 7.40983H93.7548L95.9999 0.5Z" fill="#FED300"/>
</g>
</g>
<defs>
<clipPath id="clip0_83_49">
<rect width="106" height="21" fill="white"/>
</clipPath>
<clipPath id="clip1_83_49">
<rect width="106" height="20" fill="white" transform="translate(0 0.5)"/>
</clipPath>
</defs>
</svg>
